<svg width="41" height="48" viewBox="0 0 41 48" fill="none" xmlns="http://www.w3.org/2000/svg">
<path d="M39.5839 37.4071C38.858 39.0841 37.9988 40.6278 37.0033 42.047C35.6463 43.9817 34.5352 45.321 33.6789 46.0647C32.3516 47.2854 30.9294 47.9105 29.4065 47.9461C28.3132 47.9461 26.9947 47.635 25.4599 47.0039C23.9201 46.3757 22.5051 46.0647 21.2112 46.0647C19.8542 46.0647 18.3988 46.3757 16.8421 47.0039C15.2831 47.635 14.0271 47.9639 13.0668 47.9964C11.6064 48.0587 10.1508 47.4157 8.69779 46.0647C7.77042 45.2558 6.61046 43.8692 5.22087 41.9048C3.72995 39.8071 2.50422 37.3745 1.54395 34.6013C0.515539 31.6058 0 28.7052 0 25.897C0 22.6802 0.695089 19.9057 2.08734 17.5808C3.18153 15.7133 4.63718 14.2401 6.45905 13.1587C8.28092 12.0772 10.2495 11.5261 12.3694 11.4909C13.5293 11.4909 15.0505 11.8497 16.9408 12.5548C18.8258 13.2624 20.0361 13.6212 20.5667 13.6212C20.9635 13.6212 22.308 13.2016 24.5874 12.3652C26.7428 11.5895 28.562 11.2684 30.0524 11.3949C34.0908 11.7208 37.1247 13.3127 39.1425 16.1808C35.5307 18.3692 33.7441 21.4343 33.7797 25.3663C33.8123 28.429 34.9233 30.9777 37.107 33.0013C38.0966 33.9406 39.2017 34.6665 40.4313 35.182C40.1646 35.9553 39.8832 36.696 39.5839 37.4071ZM30.322 0.960823C30.322 3.36137 29.445 5.60276 27.6969 7.67736C25.5873 10.1437 23.0357 11.5688 20.2687 11.3439C20.2334 11.0559 20.213 10.7528 20.213 10.4343C20.213 8.12979 21.2162 5.6635 22.9978 3.64696C23.8872 2.62596 25.0185 1.77701 26.3903 1.09978C27.7591 0.43266 29.0539 0.0637274 30.2716 0.000549316C30.3072 0.321465 30.322 0.642432 30.322 0.960823Z" fill="white"/>
</svg>
