<svg width="127" height="102" viewBox="0 0 127 102" fill="none" xmlns="http://www.w3.org/2000/svg">
<path d="M3 95.1238C27.4641 99.9364 46.3246 102.999 65.0444 84.2793C73.9796 75.3442 76.1503 63.275 69.8444 51.9238C58.3692 31.2675 36.6188 62.3798 52.6 72.3682C81.897 90.6793 107.995 54.2377 112.155 28.8127C113.368 21.4033 114.609 12.9524 115 5.52378C115.339 -0.919809 117.032 6.73143 117.844 9.07934C119.35 13.4291 121.884 16.9164 123.356 21.1682C125.931 28.6083 122.746 21.7918 121.755 18.3238C118.913 8.37564 118.724 -0.867677 108.6 8.72378C106.563 10.654 95.3631 19.6842 97.3999 19.9238C103.175 20.6032 109.598 24.406 115 24.7238C122.394 25.1588 126.464 27.7001 116.6 22.7682C113.382 21.159 110.214 20.1078 107 18.6793C101.703 16.3253 109.23 18.1879 109.844 18.6793C111.629 20.1069 116.523 20.7787 111.8 18.6793C110.584 18.1388 105.386 16.7238 107 16.7238C112.097 16.7238 118.803 21.8143 116.956 18.3238C115.403 15.3905 113.389 14.9361 110.2 15.1238C109.114 15.1876 105.166 18.3238 107 18.3238" stroke="#9899AC" stroke-width="5" stroke-linecap="round"/>
</svg>
