<svg width="22" height="22" viewBox="0 0 22 22" fill="none" xmlns="http://www.w3.org/2000/svg">
<path d="M21 20.25H19.75V10C19.75 7.58001 18.42 6.25001 16 6.25001H11.75V5.02001C12.33 5.16001 12.91 5.24001 13.5 5.24001C14.44 5.24001 15.38 5.06001 16.28 4.70001C16.56 4.59 16.75 4.31001 16.75 4.00001V1.00001C16.75 0.750005 16.63 0.520005 16.42 0.380005C16.21 0.240005 15.95 0.210005 15.72 0.300005C14.29 0.870005 12.71 0.870005 11.28 0.300005C11.05 0.210005 10.79 0.240005 10.58 0.380005C10.37 0.520005 10.25 0.750005 10.25 1.00001V4.00001V6.25001H6C3.58 6.25001 2.25 7.58001 2.25 10V20.25H1C0.59 20.25 0.25 20.59 0.25 21C0.25 21.41 0.59 21.75 1 21.75H3H19H21C21.41 21.75 21.75 21.41 21.75 21C21.75 20.59 21.41 20.25 21 20.25ZM6.24 20.25H3.75V11.75H6.24V20.25ZM10.24 20.25H7.74V11.75H10.24V20.25ZM14.24 20.25H11.74V11.75H14.24V20.25ZM18.25 20.25H15.74V11.75H18.25V20.25Z" fill="#9899AC"/>
</svg>
