<svg width="20" height="22" viewBox="0 0 20 22" fill="none" xmlns="http://www.w3.org/2000/svg">
<path d="M19.9247 16.4361C19.8041 15.18 18.6828 14.1935 17.377 14.1935C17.3401 14.1937 17.3035 14.1866 17.2694 14.1726C17.2353 14.1586 17.2043 14.138 17.1782 14.1119C17.1522 14.0858 17.1315 14.0548 17.1175 14.0207C17.1035 13.9866 17.0964 13.95 17.0966 13.9132V9.73317C17.0966 6.62833 15.1096 3.92093 12.3737 2.90965C12.4057 2.74995 12.4234 2.58675 12.4234 2.4235C12.4234 1.08583 11.3377 0 9.99987 0C8.66208 0 7.57631 1.08583 7.57631 2.42356C7.57631 2.58326 7.59403 2.7429 7.62241 2.89548C6.68212 3.22904 5.81276 3.75773 5.07115 4.47451C3.6731 5.82291 2.90311 7.63612 2.90311 9.58064V13.9132C2.90311 14.0658 2.77891 14.1936 2.62276 14.1936C1.31342 14.1936 0.195648 15.18 0.0750004 16.4362C0.00756571 17.1352 0.238254 17.8307 0.710178 18.3487C1.17855 18.8633 1.84922 19.1613 2.54822 19.1613H6.82759C7.00501 20.7546 8.36052 22.0001 9.99987 22.0001C11.6392 22.0001 12.9947 20.7546 13.1721 19.1613H17.4515C18.1506 19.1613 18.8212 18.8633 19.2896 18.3487C19.7579 17.8306 19.9922 17.1352 19.9247 16.4361ZM9.99987 1.41933C10.5534 1.41933 11.004 1.86998 11.004 2.4235C11.004 2.4696 10.9969 2.51221 10.9898 2.55831C10.7485 2.52281 10.5037 2.49799 10.2588 2.49088C9.83656 2.47665 9.4214 2.5051 9.0098 2.56187C9.00269 2.51576 8.99558 2.47316 8.99558 2.42706C8.9957 1.86998 9.44635 1.41933 9.99987 1.41933ZM9.99987 20.5806C9.14473 20.5806 8.42795 19.9703 8.26114 19.1613H11.7385C11.5718 19.9703 10.8551 20.5806 9.99987 20.5806ZM18.2392 17.3942C18.0334 17.6178 17.7566 17.7419 17.4515 17.7419H2.54828C2.2431 17.7419 1.96637 17.6177 1.76051 17.3942C1.55471 17.1707 1.45889 16.8761 1.49083 16.571C1.54049 16.0352 2.04086 15.6129 2.62632 15.6129C3.56312 15.6129 4.32599 14.85 4.32599 13.9132V9.58064C4.32599 8.02644 4.94339 6.57518 6.06116 5.49646C7.12566 4.4639 8.51666 3.90321 9.99987 3.90321C10.0709 3.90321 10.1382 3.90321 10.2092 3.90677C13.2218 4.01319 15.6773 6.62839 15.6773 9.73323V13.9132C15.6773 14.85 16.4402 15.6129 17.377 15.6129C17.9624 15.6129 18.4628 16.0352 18.5125 16.571C18.5408 16.8761 18.445 17.1671 18.2392 17.3942ZM0.809553 8.51614C1.136 8.51614 1.43051 8.28907 1.5015 7.95907C1.84566 6.40132 2.62276 4.98199 3.75825 3.85361C4.03504 3.57682 4.03504 3.12617 3.75825 2.84944C3.48146 2.57265 3.03081 2.57265 2.75408 2.84944C1.42701 4.16933 0.515044 5.83357 0.11411 7.65739C0.0289577 8.04061 0.270253 8.42027 0.653469 8.50192C0.710238 8.51259 0.759895 8.51614 0.809553 8.51614ZM19.1902 8.51614C19.2398 8.51614 19.2931 8.50903 19.3428 8.49843C19.726 8.41327 19.9673 8.03711 19.8821 7.65389C19.4811 5.83002 18.5692 4.16939 17.2421 2.84583C16.9653 2.56904 16.5147 2.56904 16.2379 2.84583C15.9612 3.12262 15.9611 3.57327 16.2379 3.85C17.3699 4.97837 18.1505 6.39776 18.4947 7.95545C18.5692 8.28901 18.8637 8.51614 19.1902 8.51614Z" fill="#9899AC"/>
</svg>
