<svg width="28" height="28" viewBox="0 0 28 28" fill="none" xmlns="http://www.w3.org/2000/svg">
<path d="M24.0759 18.6654C23.9851 18.556 23.8959 18.4466 23.8084 18.3411C22.6053 16.8859 21.8774 16.0076 21.8774 11.888C21.8774 9.75516 21.3672 8.00516 20.3615 6.69266C19.6199 5.72305 18.6175 4.9875 17.2963 4.44391C17.2793 4.43445 17.2641 4.42204 17.2514 4.40727C16.7762 2.81586 15.4757 1.75 14.009 1.75C12.5423 1.75 11.2424 2.81586 10.7671 4.40562C10.7544 4.41986 10.7395 4.43187 10.7228 4.44117C7.63954 5.71047 6.1411 8.1457 6.1411 11.8863C6.1411 16.0076 5.4143 16.8859 4.21009 18.3395C4.12259 18.445 4.03345 18.5522 3.94266 18.6637C3.70816 18.9466 3.55959 19.2906 3.51452 19.6552C3.46946 20.0198 3.52978 20.3897 3.68837 20.7211C4.02579 21.432 4.74493 21.8734 5.56579 21.8734H22.4582C23.2752 21.8734 23.9895 21.4326 24.328 20.7249C24.4872 20.3935 24.5481 20.0233 24.5035 19.6582C24.4588 19.2932 24.3104 18.9487 24.0759 18.6654Z" fill="#F4F2EF"/>
<path d="M16.6208 25.6292C15.9426 26.0348 15.1673 26.2494 14.377 26.25C13.5869 26.2493 12.8116 26.0347 12.1335 25.6291C11.4554 25.2234 10.8997 24.6419 10.5254 23.946C10.5077 23.9126 10.499 23.8752 10.5001 23.8375C10.5012 23.7997 10.512 23.7629 10.5316 23.7305C10.5511 23.6982 10.5787 23.6715 10.6116 23.653C10.6446 23.6345 10.6817 23.6249 10.7195 23.625H18.0356C18.0733 23.625 18.1104 23.6347 18.1433 23.6532C18.1762 23.6718 18.2037 23.6985 18.2232 23.7308C18.2426 23.7631 18.2534 23.7999 18.2545 23.8376C18.2556 23.8753 18.2468 23.9127 18.2292 23.946C17.8548 24.642 17.299 25.2236 16.6208 25.6292Z" fill="#87877D"/>
</svg>
