<svg width="24" height="24" viewBox="0 0 24 24" fill="none" xmlns="http://www.w3.org/2000/svg">
<g clip-path="url(#clip0_181_1170)">
<path d="M11.9999 23.6C18.4064 23.6 23.5999 18.4065 23.5999 12C23.5999 5.59352 18.4064 0.400024 11.9999 0.400024C5.5934 0.400024 0.399902 5.59352 0.399902 12C0.399902 18.4065 5.5934 23.6 11.9999 23.6Z" fill="#E55342" fill-opacity="0.2"/>
<path d="M13.687 12L16.6362 14.9492C16.7408 15.0542 16.7995 15.1963 16.7995 15.3444C16.7995 15.4926 16.7408 15.6347 16.6362 15.7396L15.7394 16.6364C15.6345 16.741 15.4924 16.7997 15.3442 16.7997C15.1961 16.7997 15.054 16.741 14.949 16.6364L11.9998 13.6872L9.05064 16.6364C8.94568 16.741 8.80358 16.7997 8.65544 16.7997C8.5073 16.7997 8.36519 16.741 8.26024 16.6364L7.36344 15.7396C7.25889 15.6347 7.2002 15.4926 7.2002 15.3444C7.2002 15.1963 7.25889 15.0542 7.36344 14.9492L10.3126 12L7.36344 9.05082C7.25889 8.94586 7.2002 8.80376 7.2002 8.65562C7.2002 8.50748 7.25889 8.36538 7.36344 8.26042L8.26024 7.36362C8.36519 7.25908 8.5073 7.20038 8.65544 7.20038C8.80358 7.20038 8.94568 7.25908 9.05064 7.36362L11.9998 10.3128L14.949 7.36362C15.054 7.25908 15.1961 7.20038 15.3442 7.20038C15.4924 7.20038 15.6345 7.25908 15.7394 7.36362L16.6362 8.26042C16.7408 8.36538 16.7995 8.50748 16.7995 8.65562C16.7995 8.80376 16.7408 8.94586 16.6362 9.05082L13.687 12Z" fill="#E55342"/>
</g>
<defs>
<clipPath id="clip0_181_1170">
<rect width="24" height="24" fill="white"/>
</clipPath>
</defs>
</svg>
