<svg width="24" height="24" viewBox="0 0 24 24" fill="none" xmlns="http://www.w3.org/2000/svg">
<g clip-path="url(#clip0_181_1170)">
<path d="M12 23.6C18.4065 23.6 23.6 18.4065 23.6 12C23.6 5.59352 18.4065 0.400024 12 0.400024C5.59352 0.400024 0.400024 5.59352 0.400024 12C0.400024 18.4065 5.59352 23.6 12 23.6Z" fill="#E55342" fill-opacity="0.2"/>
<path d="M13.6873 12.0001L16.6365 14.9493C16.741 15.0542 16.7997 15.1963 16.7997 15.3445C16.7997 15.4926 16.741 15.6347 16.6365 15.7397L15.7397 16.6365C15.6347 16.741 15.4926 16.7997 15.3445 16.7997C15.1963 16.7997 15.0542 16.741 14.9493 16.6365L12.0001 13.6873L9.05088 16.6365C8.94593 16.741 8.80382 16.7997 8.65568 16.7997C8.50754 16.7997 8.36544 16.741 8.26048 16.6365L7.36368 15.7397C7.25914 15.6347 7.20044 15.4926 7.20044 15.3445C7.20044 15.1963 7.25914 15.0542 7.36368 14.9493L10.3129 12.0001L7.36368 9.05088C7.25914 8.94593 7.20044 8.80382 7.20044 8.65568C7.20044 8.50754 7.25914 8.36544 7.36368 8.26048L8.26048 7.36368C8.36544 7.25914 8.50754 7.20044 8.65568 7.20044C8.80382 7.20044 8.94593 7.25914 9.05088 7.36368L12.0001 10.3129L14.9493 7.36368C15.0542 7.25914 15.1963 7.20044 15.3445 7.20044C15.4926 7.20044 15.6347 7.25914 15.7397 7.36368L16.6365 8.26048C16.741 8.36544 16.7997 8.50754 16.7997 8.65568C16.7997 8.80382 16.741 8.94593 16.6365 9.05088L13.6873 12.0001Z" fill="#E55342"/>
</g>
<defs>
<clipPath id="clip0_181_1170">
<rect width="24" height="24" fill="white"/>
</clipPath>
</defs>
</svg>
