<svg width="68" height="68" viewBox="0 0 68 68" fill="none" xmlns="http://www.w3.org/2000/svg">
    <path
        d="M2.22727 21.5586C0.797585 21.5586 0.0827408 20.8203 0.0827408 19.3438V10.3086C0.0827408 6.91016 0.949928 4.35547 2.6843 2.64453C4.41868 0.933594 6.9968 0.078125 10.4187 0.078125H19.4538C20.9304 0.078125 21.6687 0.792969 21.6687 2.22266C21.6687 3.67578 20.9304 4.40234 19.4538 4.40234H10.5241C8.53196 4.40234 7.00852 4.91797 5.95383 5.94922C4.92258 6.98047 4.40696 8.51562 4.40696 10.5547V19.3438C4.40696 20.8203 3.6804 21.5586 2.22727 21.5586ZM65.157 21.5586C63.7273 21.5586 63.0124 20.8203 63.0124 19.3438V10.5547C63.0124 8.51562 62.4734 6.98047 61.3952 5.94922C60.3171 4.91797 58.8054 4.40234 56.8601 4.40234H47.9656C46.489 4.40234 45.7507 3.67578 45.7507 2.22266C45.7507 0.792969 46.489 0.078125 47.9656 0.078125H56.9656C60.4109 0.078125 63.0007 0.945313 64.7351 2.67969C66.4695 4.39063 67.3366 6.93359 67.3366 10.3086V19.3438C67.3366 20.8203 66.6101 21.5586 65.157 21.5586ZM10.4187 67.2969C6.9968 67.2969 4.41868 66.4297 2.6843 64.6953C0.949928 62.9844 0.0827408 60.4297 0.0827408 57.0312V48.0312C0.0827408 46.5547 0.797585 45.8164 2.22727 45.8164C3.6804 45.8164 4.40696 46.5547 4.40696 48.0312V56.8203C4.40696 58.8594 4.92258 60.3945 5.95383 61.4258C7.00852 62.457 8.53196 62.9727 10.5241 62.9727H19.4538C20.9304 62.9727 21.6687 63.6992 21.6687 65.1523C21.6687 66.582 20.9304 67.2969 19.4538 67.2969H10.4187ZM47.9656 67.2969C46.489 67.2969 45.7507 66.582 45.7507 65.1523C45.7507 63.6992 46.489 62.9727 47.9656 62.9727H56.8601C58.8054 62.9727 60.3171 62.457 61.3952 61.4258C62.4734 60.3945 63.0124 58.8594 63.0124 56.8203V48.0312C63.0124 46.5547 63.7273 45.8164 65.157 45.8164C66.6101 45.8164 67.3366 46.5547 67.3366 48.0312V57.0312C67.3366 60.4297 66.4695 62.9844 64.7351 64.6953C63.0007 66.4297 60.4109 67.2969 56.9656 67.2969H47.9656ZM20.6491 30.875C19.9695 30.875 19.407 30.6641 18.9616 30.2422C18.5398 29.8203 18.3288 29.2461 18.3288 28.5195V23.7734C18.3288 23.0703 18.5398 22.5078 18.9616 22.0859C19.407 21.6406 19.9695 21.418 20.6491 21.418C21.3288 21.418 21.8913 21.6406 22.3366 22.0859C22.782 22.5078 23.0046 23.0703 23.0046 23.7734V28.5195C23.0046 29.2461 22.782 29.8203 22.3366 30.2422C21.8913 30.6641 21.3288 30.875 20.6491 30.875ZM30.8445 39.1016C30.1179 39.1016 29.5554 38.9375 29.157 38.6094C28.7585 38.2578 28.5593 37.7891 28.5593 37.2031C28.5593 36.6875 28.7234 36.2656 29.0515 35.9375C29.4031 35.5859 29.8366 35.4102 30.3523 35.4102H31.5476C31.8054 35.4102 32.0281 35.3281 32.2156 35.1641C32.4265 35 32.532 34.7539 32.532 34.4258V23.1758C32.532 22.6133 32.696 22.1797 33.0241 21.875C33.3523 21.5469 33.7859 21.3828 34.3249 21.3828C34.8874 21.3828 35.3327 21.5469 35.6609 21.875C35.989 22.1797 36.1531 22.6133 36.1531 23.1758V34.1094C36.1531 35.75 35.7312 36.9922 34.8874 37.8359C34.0437 38.6797 32.8015 39.1016 31.1609 39.1016C31.114 39.1016 31.0554 39.1016 30.9851 39.1016C30.9382 39.1016 30.8913 39.1016 30.8445 39.1016ZM46.5593 30.875C45.8562 30.875 45.2937 30.6641 44.8718 30.2422C44.4499 29.8203 44.239 29.2461 44.239 28.5195V23.7734C44.239 23.0703 44.4499 22.5078 44.8718 22.0859C45.2937 21.6406 45.8562 21.418 46.5593 21.418C47.239 21.418 47.7898 21.6406 48.2116 22.0859C48.657 22.5078 48.8796 23.0703 48.8796 23.7734V28.5195C48.8796 29.2461 48.657 29.8203 48.2116 30.2422C47.7898 30.6641 47.239 30.875 46.5593 30.875ZM33.446 50.457C31.407 50.457 29.3913 50.0586 27.3991 49.2617C25.407 48.4414 23.7195 47.2578 22.3366 45.7109C22.1491 45.5234 21.9968 45.3242 21.8796 45.1133C21.7859 44.8789 21.739 44.6328 21.739 44.375C21.739 43.8359 21.9148 43.4023 22.2663 43.0742C22.6179 42.7461 23.0515 42.582 23.5671 42.582C23.8952 42.582 24.1648 42.6523 24.3757 42.793C24.6101 42.9336 24.8562 43.1211 25.114 43.3555C26.1452 44.4102 27.4109 45.2539 28.9109 45.8867C30.4109 46.5195 31.9226 46.8359 33.446 46.8359C35.0632 46.8359 36.6101 46.5195 38.0866 45.8867C39.5866 45.2305 40.8406 44.3867 41.8484 43.3555C42.3406 42.8398 42.8445 42.582 43.3601 42.582C43.8523 42.582 44.2741 42.7461 44.6257 43.0742C44.9773 43.4023 45.1531 43.8359 45.1531 44.375C45.1531 44.6797 45.1062 44.9492 45.0124 45.1836C44.9187 45.3945 44.7898 45.582 44.6257 45.7461C43.1257 47.2227 41.3913 48.3828 39.4226 49.2266C37.4773 50.0469 35.4851 50.457 33.446 50.457Z"
        fill="#9899AC" />
</svg>