<svg width="24" height="24" viewBox="0 0 24 24" fill="none" xmlns="http://www.w3.org/2000/svg">
<path fill-rule="evenodd" clip-rule="evenodd" d="M21.792 6.401C21.7787 6.59369 21.6916 6.77384 21.5489 6.90401C21.4062 7.03419 21.2189 7.10438 21.0258 7.1C20.8327 7.09562 20.6487 7.01702 20.512 6.88051C20.3754 6.744 20.2966 6.5601 20.292 6.367L20.333 4.561L18.528 4.52C18.3353 4.50668 18.1552 4.41962 18.025 4.27693C17.8948 4.13423 17.8246 3.94687 17.829 3.75377C17.8334 3.56067 17.912 3.37668 18.0485 3.24003C18.185 3.10338 18.3689 3.02458 18.562 3.02L21.118 3.079C21.2164 3.08108 21.3134 3.10255 21.4035 3.1422C21.4936 3.18185 21.575 3.23889 21.643 3.31005C21.711 3.38122 21.7643 3.4651 21.7998 3.5569C21.8353 3.64869 21.8524 3.7466 21.85 3.845L21.792 6.401Z" fill="#DCAB55"/>
<path fill-rule="evenodd" clip-rule="evenodd" d="M2.45 2.6C2.29087 2.48065 2.18567 2.30298 2.15753 2.10607C2.1294 1.90915 2.18065 1.70913 2.3 1.55C2.41934 1.39087 2.59702 1.28567 2.79393 1.25754C2.99084 1.22941 3.19087 1.28065 3.35 1.4L9.303 5.865H12.13C12.2437 5.865 12.3558 5.89084 12.458 5.94056C12.5603 5.99028 12.6498 6.06258 12.72 6.152L15.007 9.063L20.307 3.532C20.3752 3.46089 20.4566 3.4039 20.5468 3.36428C20.637 3.32467 20.7341 3.3032 20.8326 3.30111C20.9311 3.29902 21.029 3.31635 21.1208 3.35211C21.2125 3.38786 21.2964 3.44134 21.3675 3.5095C21.4386 3.57766 21.4956 3.65915 21.5352 3.74933C21.5748 3.83951 21.5963 3.93661 21.5984 4.03509C21.6005 4.13357 21.5831 4.23149 21.5474 4.32327C21.5116 4.41505 21.4582 4.49889 21.39 4.57L15.492 10.724C15.4179 10.8019 15.3279 10.8629 15.2281 10.9029C15.1283 10.9428 15.021 10.9607 14.9137 10.9554C14.8063 10.9501 14.7013 10.9217 14.6059 10.8721C14.5106 10.8225 14.427 10.7529 14.361 10.668L11.766 7.365H9.053C8.89068 7.36522 8.73272 7.31256 8.603 7.215L2.45 2.6Z" fill="#DCAB55"/>
<path d="M5.827 20.487V8.34601C5.827 7.64901 5.262 7.08301 4.564 7.08301H2.513C1.815 7.08301 1.25 7.64901 1.25 8.34601V20.487C1.24987 20.6529 1.28245 20.8172 1.34587 20.9705C1.4093 21.1238 1.50232 21.2631 1.61963 21.3804C1.73694 21.4977 1.87622 21.5907 2.02952 21.6541C2.18281 21.7176 2.3471 21.7501 2.513 21.75H4.564C5.262 21.75 5.827 21.185 5.827 20.487Z" fill="#DCAB55" fill-opacity="0.5"/>
<path d="M17.109 20.487V14.5C17.1091 14.3341 17.0766 14.1698 17.0131 14.0165C16.9497 13.8632 16.8567 13.7239 16.7394 13.6066C16.6221 13.4893 16.4828 13.3963 16.3295 13.3329C16.1762 13.2695 16.0119 13.2369 15.846 13.237H13.795C13.6291 13.2369 13.4648 13.2695 13.3115 13.3329C13.1582 13.3963 13.0189 13.4893 12.9016 13.6066C12.7843 13.7239 12.6913 13.8632 12.6279 14.0165C12.5644 14.1698 12.5319 14.3341 12.532 14.5V20.487C12.5319 20.6529 12.5644 20.8172 12.6279 20.9705C12.6913 21.1238 12.7843 21.2631 12.9016 21.3804C13.0189 21.4977 13.1582 21.5907 13.3115 21.6541C13.4648 21.7176 13.6291 21.7501 13.795 21.75H15.846C16.0119 21.7501 16.1762 21.7176 16.3295 21.6541C16.4828 21.5907 16.6221 21.4977 16.7394 21.3804C16.8567 21.2631 16.9497 21.1238 17.0131 20.9705C17.0766 20.8172 17.1091 20.6529 17.109 20.487Z" fill="#DCAB55" fill-opacity="0.5"/>
<path d="M11.468 20.487V11.423C11.468 10.726 10.903 10.16 10.205 10.16H8.154C7.98811 10.1599 7.82381 10.1925 7.67052 10.2559C7.51722 10.3193 7.37794 10.4123 7.26063 10.5296C7.14333 10.6469 7.0503 10.7862 6.98687 10.9395C6.92345 11.0928 6.89087 11.2571 6.891 11.423V20.487C6.89087 20.6529 6.92345 20.8172 6.98687 20.9705C7.0503 21.1238 7.14333 21.2631 7.26063 21.3804C7.37794 21.4977 7.51722 21.5907 7.67052 21.6541C7.82381 21.7176 7.98811 21.7501 8.154 21.75H10.205C10.903 21.75 11.468 21.185 11.468 20.487Z" fill="#DCAB55" fill-opacity="0.5"/>
<path d="M22.75 20.487V11.423C22.75 10.726 22.185 10.16 21.487 10.16H19.436C19.2701 10.1599 19.1058 10.1925 18.9525 10.2559C18.7992 10.3193 18.6599 10.4123 18.5426 10.5296C18.4253 10.6469 18.3323 10.7862 18.2689 10.9395C18.2055 11.0928 18.1729 11.2571 18.173 11.423V20.487C18.1729 20.6529 18.2055 20.8172 18.2689 20.9705C18.3323 21.1238 18.4253 21.2631 18.5426 21.3804C18.6599 21.4977 18.7992 21.5907 18.9525 21.6541C19.1058 21.7176 19.2701 21.7501 19.436 21.75H21.487C22.185 21.75 22.75 21.185 22.75 20.487Z" fill="#DCAB55" fill-opacity="0.5"/>
</svg>
