<svg width="24" height="24" viewBox="0 0 24 24" fill="none" xmlns="http://www.w3.org/2000/svg">
<g clip-path="url(#clip0_1295_1306)">
<path d="M22.5 12C22.5 14.78 21.39 17.46 19.42 19.42C17.45 21.39 14.78 22.5 12 22.5C9.22 22.5 6.54 21.39 4.58 19.42C2.61 17.45 1.5 14.78 1.5 12C1.5 11.8 1.58 11.61 1.72 11.47C1.86 11.33 2.05 11.25 2.25 11.25C2.45 11.25 2.64 11.33 2.78 11.47C2.92 11.61 3 11.8 3 12C3 14.01 3.66 15.96 4.9 17.55C6.13 19.14 7.86 20.26 9.81 20.76C11.76 21.25 13.81 21.08 15.65 20.27C17.49 19.46 19 18.06 19.95 16.29C20.9 14.52 21.24 12.49 20.9 10.51C20.56 8.53002 19.57 6.72002 18.09 5.37002C16.61 4.02002 14.71 3.20002 12.71 3.04002C10.71 2.89002 8.71 3.40002 7.04 4.51002H7.51C7.71 4.51002 7.9 4.59002 8.04 4.73002C8.18 4.87002 8.26 5.06002 8.26 5.26002C8.26 5.46002 8.18 5.65002 8.04 5.79002C7.9 5.93002 7.71 6.01002 7.51 6.01002H5.26C5.06 6.01002 4.87 5.93002 4.73 5.79002C4.59 5.65002 4.51 5.46002 4.51 5.26002V3.00002C4.51 2.80002 4.59 2.61002 4.73 2.47002C4.87 2.33002 5.06 2.25002 5.26 2.25002C5.46 2.25002 5.65 2.33002 5.79 2.47002C5.93 2.61002 6.01 2.80002 6.01 3.00002V3.39002C7.57 2.29002 9.42 1.64002 11.33 1.52002C13.24 1.40002 15.16 1.80002 16.86 2.69002C18.56 3.58002 19.99 4.92002 20.98 6.56002C21.97 8.20002 22.5 10.08 22.5 12Z" fill="#DCAB55" fill-opacity="0.5"/>
<path d="M16.7704 7.23C15.5004 5.96 13.7904 5.25 12.0004 5.25C10.6604 5.25 9.36037 5.65 8.25037 6.39C7.14037 7.13 6.27037 8.19 5.76037 9.42C5.25037 10.65 5.12037 12.01 5.38037 13.32C5.64037 14.63 6.28037 15.83 7.23037 16.78C8.18037 17.73 9.38037 18.37 10.6904 18.63C12.0004 18.89 13.3604 18.76 14.5904 18.25C15.8204 17.74 16.8804 16.87 17.6204 15.76C18.3604 14.65 18.7604 13.34 18.7604 12.01C18.7604 10.22 18.0504 8.5 16.7804 7.24L16.7704 7.23ZM14.8704 13.92C14.7604 14.09 14.5904 14.2 14.3904 14.24C14.1904 14.28 13.9904 14.24 13.8304 14.13L11.5804 12.63C11.4804 12.56 11.3904 12.47 11.3404 12.36C11.2804 12.25 11.2504 12.13 11.2504 12.01V8.26C11.2504 8.06 11.3304 7.87 11.4704 7.73C11.6104 7.59 11.8004 7.51 12.0004 7.51C12.2004 7.51 12.3904 7.59 12.5304 7.73C12.6704 7.87 12.7504 8.06 12.7504 8.26V11.61L14.6704 12.89C14.8404 13 14.9504 13.17 14.9904 13.37C15.0304 13.57 14.9904 13.77 14.8804 13.93L14.8704 13.92Z" fill="#DCAB55"/>
</g>
<defs>
<clipPath id="clip0_1295_1306">
<rect width="21" height="21" fill="white" transform="translate(1.5 1.5)"/>
</clipPath>
</defs>
</svg>
