<svg width="24" height="24" viewBox="0 0 24 24" fill="none" xmlns="http://www.w3.org/2000/svg">
<g clip-path="url(#clip0_16_1584)">
<path d="M11.5148 13.1853C11.5148 13.2713 11.5434 13.3411 11.6007 13.3956C11.658 13.4501 11.7439 13.4997 11.8585 13.5458V12.8932C11.6294 12.9219 11.5148 13.019 11.5148 13.1853ZM12.5796 15.6362C12.5111 15.5762 12.4195 15.5231 12.305 15.4776V16.1127C12.4419 16.1015 12.5397 16.0729 12.597 16.0267C12.6536 15.9813 12.6823 15.9212 12.6823 15.8465C12.6823 15.7662 12.648 15.6963 12.5796 15.6362Z" fill="#DCAB55"/>
<path d="M18.5494 9.89566C17.6961 8.64943 16.7316 7.65368 15.683 6.93625C14.494 6.12278 13.2549 5.71033 12 5.71033C10.7451 5.71033 9.50595 6.12278 8.31703 6.93625C7.26837 7.65372 6.30394 8.64943 5.45061 9.89566C3.8497 12.2338 2.85516 15.2124 2.85516 17.669C2.85516 20.0896 3.81134 21.8328 5.69705 22.8501C7.15118 23.6346 9.15399 24 12 24C14.846 24 16.8489 23.6346 18.303 22.8501C20.1887 21.8328 21.1448 20.0896 21.1448 17.669C21.1448 15.2124 20.1503 12.2338 18.5494 9.89566ZM14.3095 16.5459C14.1921 16.7835 14.0377 16.9784 13.8463 17.13C13.6541 17.2816 13.4355 17.3962 13.1888 17.4738C12.9409 17.5513 12.6845 17.5987 12.4252 17.6149V18.6538H11.7384V17.5982C11.3436 17.5639 10.951 17.4863 10.5618 17.3662C10.1727 17.246 9.82405 17.0944 9.51453 16.9114L10.2356 15.4428C10.3964 15.5438 10.5627 15.6357 10.7337 15.7181C10.8825 15.7921 11.0558 15.8655 11.2535 15.9367C11.4493 16.0081 11.6521 16.0585 11.8586 16.087V15.3317C11.6788 15.2849 11.5012 15.2303 11.3262 15.1682C11.0572 15.0767 10.8252 14.9782 10.631 14.872C10.4361 14.7664 10.2761 14.6463 10.1503 14.5115C10.0238 14.3773 9.93093 14.2243 9.87085 14.0524C9.81078 13.8806 9.78072 13.6828 9.78072 13.4599C9.78072 13.1511 9.8324 12.8773 9.9351 12.6397C10.0385 12.4029 10.1783 12.1981 10.3557 12.0263C10.5332 11.8544 10.7407 11.7168 10.9782 11.614C11.2158 11.5113 11.4694 11.445 11.7384 11.4163V10.5493H12.4252V11.4254C12.6103 11.4475 12.7937 11.4818 12.9743 11.5281C13.1518 11.5742 13.3223 11.6267 13.4851 11.6867C13.6407 11.7439 13.7941 11.807 13.9448 11.8761C14.0873 11.9418 14.2194 12.0032 14.3395 12.0606L13.6185 13.4425C13.4862 13.3591 13.3485 13.2847 13.2063 13.2196C13.0805 13.1568 12.9387 13.0981 12.7815 13.0436C12.6261 12.9899 12.4668 12.9483 12.305 12.9192V13.6919C12.3567 13.7032 12.4105 13.7192 12.4678 13.7387C12.5251 13.759 12.5851 13.7779 12.648 13.7946C12.9289 13.8806 13.1818 13.9749 13.4082 14.0783C13.6338 14.181 13.8274 14.3026 13.9874 14.443C14.1481 14.5835 14.2711 14.7533 14.357 14.9538C14.4429 15.1543 14.4855 15.3974 14.4855 15.6839C14.4855 16.0212 14.4269 16.3091 14.3095 16.5459Z" fill="#DCAB55"/>
<path d="M15.6979 5.23849C14.5372 4.61767 13.3317 4.30342 12.1026 4.30342C10.8735 4.30342 9.66809 4.61767 8.50735 5.23849L7 1.01798L8.65142 0.284051C9.07363 0.0967619 9.5304 0 9.99229 0C10.4542 0 10.9109 0.0967619 11.3332 0.284051C11.5754 0.391542 11.8376 0.447076 12.1026 0.447076C12.3677 0.447076 12.6298 0.391542 12.8721 0.284051C13.2943 0.0967619 13.7511 0 14.213 0C14.6749 0 15.1316 0.0967619 15.5539 0.284051L17.2053 1.01798L15.6979 5.23849Z" fill="#DCAB55" fill-opacity="0.5"/>
</g>
<defs>
<clipPath id="clip0_16_1584">
<rect width="24" height="24" fill="white"/>
</clipPath>
</defs>
</svg>
