<svg width="24" height="24" viewBox="0 0 24 24" fill="none" xmlns="http://www.w3.org/2000/svg">
<path d="M20.8614 14.2288V9.77123C21.943 9.4643 22.7379 8.46844 22.7379 7.28981C22.7379 5.86739 21.5806 4.71023 20.1583 4.71023C19.4604 4.71023 18.8269 4.98919 18.3621 5.44088L14.501 3.21173C14.5533 3.00511 14.5797 2.7928 14.5796 2.57967C14.5796 1.15725 13.4224 0 12 0C10.5776 0 9.42037 1.15725 9.42037 2.57963C9.42037 2.79764 9.44784 3.00933 9.49898 3.21169L5.63793 5.44083C5.17307 4.98914 4.53951 4.71019 3.84168 4.71019C2.41926 4.71019 1.26205 5.86739 1.26205 7.28977C1.26205 8.46844 2.05691 9.46425 3.13855 9.77119V14.2287C2.05691 14.5357 1.26205 15.5315 1.26205 16.7101C1.26205 18.1326 2.41926 19.2897 3.84168 19.2897C4.53951 19.2897 5.17307 19.0108 5.63788 18.5591L9.49893 20.7882C9.44668 20.9948 9.42028 21.2072 9.42032 21.4203C9.42037 22.8428 10.5776 24 12 24C13.4224 24 14.5796 22.8427 14.5796 21.4204C14.5796 21.2024 14.5521 20.9907 14.501 20.7883L18.3621 18.5592C18.8269 19.0109 19.4604 19.2898 20.1583 19.2898C21.5807 19.2898 22.7379 18.1326 22.7379 16.7102C22.7379 15.5316 21.943 14.5357 20.8614 14.2288ZM12.7031 18.939V17.1117C12.472 17.143 12.2372 17.1593 12 17.1593C11.7628 17.1593 11.528 17.143 11.2969 17.1117V18.939C10.8857 19.056 10.5101 19.2733 10.2037 19.5714L6.3427 17.3423C6.39384 17.1399 6.4213 16.9282 6.4213 16.7102C6.4213 16.4922 6.39384 16.2805 6.3427 16.0781L7.92454 15.1649C7.63477 14.7936 7.39764 14.3841 7.21987 13.9479L5.63793 14.8612C5.33159 14.5631 4.95598 14.3458 4.54485 14.2288V9.77123C4.95599 9.65424 5.33161 9.4369 5.63793 9.13875L7.21987 10.0521C7.39763 9.61592 7.63476 9.20642 7.92454 8.83514L6.34274 7.92188C6.39501 7.71524 6.42142 7.50291 6.42135 7.28977C6.42135 7.07175 6.39388 6.86006 6.34274 6.6577L10.2038 4.42856C10.5101 4.72669 10.8858 4.94403 11.2969 5.06105V6.88833C11.5281 6.85702 11.7628 6.84075 12 6.84075C12.2373 6.84075 12.472 6.85702 12.7032 6.88833V5.06105C13.1143 4.94402 13.4899 4.72668 13.7963 4.42856L17.6573 6.6577C17.6062 6.86006 17.5787 7.07175 17.5787 7.28977C17.5787 7.50778 17.6062 7.71952 17.6573 7.92188L16.0755 8.83514C16.3653 9.20642 16.6024 9.61593 16.7802 10.0521L18.3621 9.13875C18.6684 9.43688 19.044 9.65422 19.4552 9.77123V14.2288C19.044 14.3458 18.6684 14.5631 18.3621 14.8612L16.7802 13.9479C16.6024 14.3841 16.3653 14.7936 16.0755 15.1649L17.6573 16.0781C17.605 16.2848 17.5786 16.4971 17.5787 16.7102C17.5787 16.9282 17.6061 17.1399 17.6573 17.3423L13.7962 19.5714C13.4899 19.2733 13.1143 19.0559 12.7031 18.939Z" fill="#87877D"/>
<path d="M12 15.753C14.0727 15.753 15.753 14.0727 15.753 12C15.753 9.92728 14.0727 8.24701 12 8.24701C9.92725 8.24701 8.24698 9.92728 8.24698 12C8.24698 14.0727 9.92725 15.753 12 15.753Z" fill="#87877D"/>
</svg>
