<svg width="10" height="9" viewBox="0 0 10 9" fill="none" xmlns="http://www.w3.org/2000/svg">
<path d="M7.99999 7.87988C7.43999 7.87988 6.98999 7.42988 6.98999 6.87988C6.98999 6.32988 7.43999 5.87988 7.98999 5.87988C8.53999 5.87988 8.98999 6.32988 8.98999 6.87988C8.98999 7.42988 8.55999 7.87988 7.99999 7.87988Z" fill="#9899AC"/>
<path d="M1.99999 2.87988C1.43999 2.87988 0.98999 2.42988 0.98999 1.87988C0.98999 1.32988 1.43999 0.879883 1.98999 0.879883C2.53999 0.879883 2.98999 1.32988 2.98999 1.87988C2.98999 2.42988 2.55999 2.87988 1.99999 2.87988Z" fill="#9899AC"/>
<path d="M1.63007 8.42989C1.44007 8.42989 1.25007 8.35989 1.10007 8.20989C0.810068 7.91989 0.810068 7.43989 1.10007 7.14989L7.83007 0.419893C8.12007 0.129893 8.60007 0.129893 8.89007 0.419893C9.18007 0.709893 9.18007 1.18989 8.89007 1.47989L2.16007 8.20989C2.02007 8.35989 1.82007 8.42989 1.63007 8.42989Z" fill="#9899AC"/>
</svg>
