<svg width="17" height="17" viewBox="0 0 17 17" fill="none" xmlns="http://www.w3.org/2000/svg">
<path fill-rule="evenodd" clip-rule="evenodd" d="M12.2711 0.0416645H12.328C13.0645 0.0416577 13.6584 0.0416522 14.1366 0.0871132C14.6296 0.133997 15.0593 0.233301 15.4456 0.470037C15.8367 0.709734 16.1656 1.0386 16.4053 1.42975C16.642 1.81607 16.7413 2.24568 16.7882 2.73877C16.8337 3.21691 16.8337 3.81087 16.8337 4.54735V4.6043C16.8337 5.08822 16.8337 5.49207 16.8025 5.82008C16.7699 6.16299 16.6991 6.48256 16.5195 6.77567C16.3437 7.06252 16.1026 7.30369 15.8157 7.47946C15.5226 7.65908 15.203 7.72983 14.8601 7.76243C14.5321 7.79362 14.1283 7.79361 13.6443 7.7936L12.7236 7.7936C12.0271 7.79363 11.4463 7.79364 10.9852 7.73166C10.4986 7.66623 10.0592 7.5223 9.70611 7.16922C9.35303 6.81614 9.2091 6.37676 9.14367 5.8901C9.08168 5.42903 9.0817 4.84824 9.08172 4.15174L9.08172 3.23104C9.08171 2.74712 9.0817 2.34321 9.11289 2.01519C9.14549 1.67228 9.21624 1.35271 9.39586 1.05959C9.57164 0.772752 9.81281 0.531583 10.0997 0.355805C10.3928 0.176184 10.7123 0.105439 11.0552 0.0728342C11.3833 0.0416456 11.7872 0.0416542 12.2711 0.0416645ZM12.9577 4.88663C12.5581 4.88663 12.3584 4.88663 12.2173 4.78654C12.1676 4.75123 12.1241 4.70777 12.0888 4.658C11.9887 4.51694 11.9887 4.31718 11.9887 3.91764C11.9887 3.51811 11.9887 3.31832 12.0888 3.17727C12.1241 3.1275 12.1676 3.08404 12.2173 3.04872C12.3584 2.94864 12.5581 2.94864 12.9577 2.94864C13.3572 2.94864 13.557 2.94864 13.6981 3.04872C13.7478 3.08404 13.7913 3.1275 13.8266 3.17727C13.9267 3.31832 13.9267 3.51809 13.9267 3.91763C13.9267 4.31717 13.9267 4.51694 13.8266 4.658C13.7913 4.70777 13.7478 4.75123 13.6981 4.78654C13.557 4.88663 13.3572 4.88663 12.9577 4.88663Z" fill="white"/>
<path fill-rule="evenodd" clip-rule="evenodd" d="M6.901 0.355805C6.60789 0.176184 6.28832 0.105439 5.94541 0.0728342C5.61738 0.0416456 5.21352 0.0416542 4.72957 0.0416645H4.67269C3.93622 0.0416577 3.34223 0.0416522 2.8641 0.0871132C2.37101 0.133997 1.9414 0.233301 1.55508 0.470037C1.16393 0.709734 0.835062 1.0386 0.595366 1.42975C0.358629 1.81607 0.259325 2.24568 0.212441 2.73877C0.16698 3.2169 0.166986 3.81085 0.166993 4.54732V4.60421C0.166982 5.08816 0.166974 5.49205 0.198162 5.82008C0.230767 6.16299 0.301512 6.48256 0.481133 6.77567C0.656911 7.06252 0.89808 7.30369 1.18492 7.47946C1.47804 7.65908 1.79761 7.72983 2.14052 7.76243C2.46852 7.79362 2.87235 7.79361 3.35625 7.7936L4.27707 7.7936C4.97355 7.79363 5.55436 7.79364 6.01543 7.73166C6.50209 7.66623 6.94147 7.5223 7.29455 7.16922C7.64762 6.81614 7.79155 6.37676 7.85698 5.8901C7.91897 5.42903 7.91895 4.84825 7.91893 4.15176L7.91893 3.23105C7.91894 2.74715 7.91895 2.34319 7.88776 2.01519C7.85516 1.67228 7.78441 1.35271 7.60479 1.05959C7.42901 0.772752 7.18784 0.531583 6.901 0.355805ZM3.3026 4.78654C3.44365 4.88663 3.64342 4.88663 4.04296 4.88663C4.4425 4.88663 4.64227 4.88663 4.78333 4.78654C4.8331 4.75123 4.87656 4.70777 4.91187 4.658C5.01195 4.51694 5.01195 4.31717 5.01195 3.91763C5.01195 3.51809 5.01195 3.31832 4.91187 3.17727C4.87656 3.1275 4.8331 3.08404 4.78333 3.04872C4.64227 2.94864 4.4425 2.94864 4.04296 2.94864C3.64342 2.94864 3.44365 2.94864 3.3026 3.04872C3.25283 3.08404 3.20937 3.1275 3.17405 3.17727C3.07397 3.31832 3.07397 3.51809 3.07397 3.91763C3.07397 4.31717 3.07397 4.51694 3.17405 4.658C3.20937 4.70777 3.25283 4.75123 3.3026 4.78654Z" fill="white"/>
<path fill-rule="evenodd" clip-rule="evenodd" d="M6.01543 9.01834C6.50209 9.08377 6.94147 9.2277 7.29455 9.58078C7.64762 9.93386 7.79155 10.3732 7.85698 10.8599C7.91897 11.321 7.91895 11.9018 7.91893 12.5983L7.91893 13.519C7.91894 14.0029 7.91895 14.4068 7.88776 14.7348C7.85516 15.0777 7.78441 15.3973 7.60479 15.6904C7.42901 15.9772 7.18784 16.2184 6.901 16.3942C6.60789 16.5738 6.28832 16.6446 5.94541 16.6772C5.61739 16.7083 5.21347 16.7083 4.72955 16.7083H4.67268C3.93619 16.7083 3.34224 16.7083 2.8641 16.6629C2.37101 16.616 1.9414 16.5167 1.55508 16.28C1.16393 16.0403 0.835062 15.7114 0.595366 15.3202C0.358629 14.9339 0.259325 14.5043 0.212441 14.0112C0.16698 13.5331 0.166986 12.9391 0.166993 12.2026V12.1458C0.166982 11.6618 0.166974 11.2579 0.198162 10.9299C0.230767 10.587 0.301512 10.2674 0.481133 9.97432C0.656911 9.68748 0.89808 9.44631 1.18492 9.27053C1.47804 9.09091 1.79761 9.02017 2.14052 8.98756C2.46853 8.95637 2.87239 8.95638 3.3563 8.95639L4.27707 8.95639C4.97357 8.95637 5.55436 8.95635 6.01543 9.01834ZM4.04296 13.8014C3.64342 13.8014 3.44365 13.8014 3.3026 13.7013C3.25283 13.666 3.20937 13.6225 3.17405 13.5727C3.07397 13.4317 3.07397 13.2319 3.07397 12.8324C3.07397 12.4328 3.07397 12.2331 3.17405 12.092C3.20937 12.0422 3.25283 11.9988 3.3026 11.9635C3.44365 11.8634 3.64342 11.8634 4.04295 11.8634C4.44249 11.8634 4.64227 11.8634 4.78333 11.9635C4.8331 11.9988 4.87656 12.0422 4.91187 12.092C5.01195 12.2331 5.01195 12.4328 5.01195 12.8324C5.01195 13.2319 5.01195 13.4317 4.91187 13.5727C4.87656 13.6225 4.8331 13.666 4.78333 13.7013C4.64227 13.8014 4.4425 13.8014 4.04296 13.8014Z" fill="white"/>
<path d="M9.08172 12.2212V12.251H10.2445C10.2445 11.6945 10.2452 11.3209 10.2742 11.0361C10.3022 10.761 10.3516 10.6339 10.4078 10.5498C10.4785 10.444 10.5694 10.3532 10.6752 10.2825C10.7592 10.2263 10.8863 10.1768 11.1614 10.1489C11.4462 10.1199 11.8198 10.1192 12.3763 10.1192H13.9267V8.95639H12.3466C11.8275 8.95638 11.3944 8.95637 11.0438 8.99204C10.6767 9.02938 10.3361 9.11055 10.0291 9.31566C9.79638 9.47119 9.59652 9.67105 9.44099 9.90382C9.23588 10.2108 9.1547 10.5514 9.11737 10.9184C9.0817 11.2691 9.08171 11.7022 9.08172 12.2212Z" fill="white"/>
<path d="M16.8337 13.8209V13.8014H15.6709C15.6709 14.1705 15.6706 14.4182 15.6575 14.6101C15.6447 14.7967 15.6219 14.8876 15.5971 14.9474C15.4988 15.1848 15.3101 15.3734 15.0727 15.4718C15.0129 15.4966 14.922 15.5194 14.7354 15.5321C14.5436 15.5452 14.2958 15.5455 13.9267 15.5455H12.3763V16.7083H13.9463C14.2908 16.7083 14.5784 16.7083 14.8146 16.6922C15.0604 16.6755 15.2926 16.6393 15.5177 16.5461C16.04 16.3297 16.455 15.9147 16.6714 15.3923C16.7646 15.1672 16.8008 14.935 16.8176 14.6892C16.8337 14.4531 16.8337 14.1655 16.8337 13.8209Z" fill="white"/>
<path d="M10.2445 16.1269C10.2445 16.448 9.98421 16.7083 9.66312 16.7083C9.34202 16.7083 9.08172 16.448 9.08172 16.1269V13.8014H10.2445V16.1269Z" fill="white"/>
<path d="M16.2523 8.95639C15.9312 8.95639 15.6709 9.21669 15.6709 9.53779V12.251H16.8337V9.53779C16.8337 9.21669 16.5734 8.95639 16.2523 8.95639Z" fill="white"/>
<path d="M11.8971 12.2228C11.8337 12.3759 11.8337 12.57 11.8337 12.9583C11.8337 13.3466 11.8337 13.5408 11.8971 13.6939C11.9817 13.8981 12.1439 14.0603 12.3481 14.1449C12.5012 14.2083 12.6954 14.2083 13.0837 14.2083C13.4719 14.2083 13.6661 14.2083 13.8192 14.1449C14.0234 14.0603 14.1856 13.8981 14.2702 13.6939C14.3337 13.5408 14.3337 13.3466 14.3337 12.9583C14.3337 12.57 14.3337 12.3759 14.2702 12.2228C14.1856 12.0186 14.0234 11.8563 13.8192 11.7718C13.6661 11.7083 13.4719 11.7083 13.0837 11.7083C12.6954 11.7083 12.5012 11.7083 12.3481 11.7718C12.1439 11.8563 11.9817 12.0186 11.8971 12.2228Z" fill="white"/>
</svg>
