<svg width="18" height="18" viewBox="0 0 18 18" fill="none" xmlns="http://www.w3.org/2000/svg">
<path d="M8.11496 0.60945C6.1279 0.612781 4.22319 1.40361 2.81812 2.80868C1.41306 4.21374 0.622228 6.11846 0.618896 8.10551C0.620557 10.0942 1.41045 12.0012 2.81552 13.4087C4.22058 14.8161 6.12624 15.6092 8.11496 15.6142C9.87874 15.6142 11.5039 14.9937 12.789 13.9669L15.9102 17.0882C16.0684 17.2352 16.2773 17.3152 16.4932 17.3115C16.7091 17.3077 16.9151 17.2204 17.068 17.0679C17.2208 16.9154 17.3087 16.7097 17.313 16.4938C17.3174 16.2779 17.2379 16.0688 17.0913 15.9102L13.9701 12.7858C15.0361 11.46 15.6173 9.80987 15.6173 8.10866C15.6173 3.97638 12.2472 0.60945 8.11496 0.60945ZM8.11496 2.27874C11.3465 2.27874 13.948 4.87717 13.948 8.10551C13.948 11.3339 11.3465 13.948 8.11496 13.948C4.88346 13.948 2.28504 11.3433 2.28504 8.11181C2.28504 4.88032 4.88346 2.27874 8.11496 2.27874Z" fill="#87877D"/>
</svg>
